<?xml version="1.0" standalone="no"?>
<!DOCTYPE svg PUBLIC "-//W3C//DTD SVG 20010904//EN" "http://www.w3.org/TR/2001/REC-SVG-20010904/DTD/svg10.dtd">
<svg version="1.0" xmlns="http://www.w3.org/2000/svg" width="700.000000pt" height="700.000000pt" viewBox="0 0 700.000000 700.000000" preserveAspectRatio="xMidYMid meet">
  <g transform="translate(0.000000,700.000000) scale(0.100000,-0.100000)" fill="#000000" stroke="none">
    <path d="M1633 5318 c-157 -29 -281 -146 -317 -301 -6 -25 -10 -655 -10 -1625 
    0 -1395 2 -1584 16 -1625 46 -138 155 -241 293 -275 45 -11 530 -12 2885 -10 
    l2835 3 53 24 c65 29 130 94 164 164 l23 47 0 1625 0 1625 -28 57 c-30 64 
    -77 115 -141 153 l-41 25 -2855 2 c-1571 0 -2862 -4 -2877 -9z m5557 -423 c0 
    -3 -1278 -829 -2840 -1836 -1561 -1007 -2843 -1831 -2848 -1831 -5 0 -9 827 
    -9 1839 l0 1840 2848 -3 c1567 -2 2849 -7 2849 -9z m0 -3280 l0 -1215 -2847 0 
    -2848 0 1 898 c0 493 2 902 5 908 4 10 5745 3722 5682 3682 l7 -6 0 -1216z"/>
    <path d="M2070 1950 l0 -220 75 0 75 0 0 -145 0 -145 280 0 280 0 0 145 0 145 
    75 0 75 0 0 220 0 220 -430 0 -430 0 0 -220z"/>
    <path d="M3480 1950 l0 -220 75 0 75 0 0 -145 0 -145 280 0 280 0 0 145 0 145 
    75 0 75 0 0 220 0 220 -430 0 -430 0 0 -220z"/>
  </g>
</svg> 